<?xml version="1.0" standalone="no"?>
<!DOCTYPE svg PUBLIC "-//W3C//DTD SVG 20010904//EN"
 "http://www.w3.org/TR/2001/REC-SVG-20010904/DTD/svg10.dtd">
<svg version="1.0" xmlns="http://www.w3.org/2000/svg"
 width="1000.000000pt" height="750.000000pt" viewBox="0 0 1000.000000 750.000000"
 preserveAspectRatio="xMidYMid meet">
<metadata>
Created by potrace 1.11, written by Peter Selinger 2001-2013
</metadata>
<g transform="translate(0.000000,750.000000) scale(0.100000,-0.100000)"
fill="#000000" stroke="none">
<path d="M5322 6623 c-82 -65 -194 -154 -250 -198 -92 -72 -101 -83 -99 -110
1 -17 7 -29 14 -28 14 3 176 19 438 42 110 10 203 17 208 14 4 -2 7 -16 7 -31
0 -21 2 -24 10 -12 8 12 10 10 10 -9 0 -13 2 -22 6 -19 3 3 25 0 49 -7 33 -11
45 -11 49 -2 2 7 5 4 5 -7 1 -15 4 -16 16 -6 8 7 15 9 15 4 0 -8 29 -14 90
-18 14 0 28 -5 31 -9 4 -5 23 -9 43 -10 20 -1 36 -6 37 -11 0 -6 4 -2 9 9 6
14 9 15 9 5 1 -17 41 -25 41 -9 0 5 -4 9 -10 9 -5 0 -10 13 -10 29 0 18 -8 35
-18 43 -11 7 -43 34 -73 60 -131 113 -465 388 -471 388 -4 0 -74 -53 -156
-117z"/>
<path d="M3316 6542 c-7 -12 -10 -308 -3 -319 4 -6 7 -337 7 -736 l1 -725 24
-6 c22 -6 25 -12 25 -52 l0 -46 -69 7 -70 7 -3 -99 c-2 -54 -2 -117 0 -140 l3
-43 70 0 69 0 0 -34 c0 -32 -2 -34 -42 -40 -29 -5 -44 -3 -50 6 -4 8 -8 -14
-8 -51 0 -51 -3 -62 -14 -58 -10 4 -14 -1 -13 -14 1 -14 7 -19 19 -16 10 3 16
1 12 -4 -3 -5 2 -6 10 -3 9 3 13 10 10 15 -3 5 13 9 35 9 37 0 41 -2 41 -26 0
-25 -2 -26 -50 -22 l-50 3 0 -62 c0 -65 11 -79 36 -45 8 10 13 12 14 5 0 -7
11 -13 25 -13 21 0 25 -5 25 -29 0 -24 -4 -28 -27 -29 -77 0 -73 3 -73 -57 l0
-55 48 2 c45 3 47 2 50 -24 3 -27 2 -28 -42 -28 -30 0 -46 -5 -47 -12 -5 -44
-5 -75 -1 -85 6 -18 32 -16 32 1 0 21 32 24 52 6 10 -10 14 -24 11 -42 -4 -23
-10 -27 -54 -30 -40 -2 -48 0 -44 12 5 12 4 13 -7 2 -7 -7 -13 -16 -14 -20 -6
-54 -55 -97 -73 -65 -9 16 -31 10 -31 -8 0 -6 5 -7 10 -4 6 3 10 1 10 -5 0 -6
4 -9 8 -6 4 2 9 -5 9 -17 2 -21 1 -21 -12 -4 -8 12 -15 14 -20 7 -13 -21 -23
1 -19 43 4 34 3 38 -5 20 -13 -29 -25 -30 -16 -2 6 18 4 20 -14 14 -13 -4 -21
-2 -21 5 0 6 -4 8 -10 5 -16 -10 -11 22 6 39 12 13 13 22 6 44 -8 21 -11 22
-11 7 -1 -19 -1 -19 -15 0 -7 11 -16 29 -19 40 -4 17 -5 17 -6 -4 -1 -23 -42
-71 -61 -71 -6 0 -6 10 0 26 13 34 13 104 -1 104 -6 0 -8 -9 -4 -21 4 -12 2
-24 -4 -29 -7 -3 -12 -32 -12 -64 -1 -31 -3 -55 -6 -52 -12 12 -42 -16 -49
-46 -6 -29 -8 -30 -14 -13 -4 11 -4 24 1 29 14 15 11 46 -6 62 -13 14 -15 14
-15 -1 0 -9 -4 -14 -9 -11 -5 4 -12 0 -14 -6 -3 -7 -6 -2 -6 11 -1 24 -1 24
-17 5 -8 -10 -13 -13 -9 -6 3 6 3 12 -2 12 -4 0 -9 30 -11 67 -1 37 -7 72 -11
76 -8 8 -57 13 -196 20 -33 2 -40 6 -45 27 -6 25 -8 26 -80 21 -11 0 -20 -8
-20 -17 0 -12 -9 -14 -42 -12 -36 3 -44 7 -46 27 -2 15 0 21 7 17 7 -5 11 5
12 26 0 43 0 1112 0 1161 -1 32 -4 37 -24 37 -41 0 -67 35 -67 90 l0 50 50 0
c44 0 50 -3 50 -21 0 -11 4 -18 10 -14 5 3 7 12 4 19 -3 7 2 19 11 26 17 14
20 40 5 40 -5 0 -10 16 -10 35 0 19 5 35 10 35 6 0 10 7 10 15 0 8 -5 15 -11
15 -6 0 -9 14 -7 32 l3 32 -71 12 c-39 7 -89 14 -110 16 -36 3 -39 1 -42 -24
-3 -29 -14 -33 -104 -43 -34 -3 -48 -1 -49 8 -1 6 -2 21 -3 32 -1 11 -3 29 -4
41 -1 11 -8 21 -14 22 -7 1 -60 10 -118 21 -58 10 -121 21 -139 22 l-34 4 -4
-65 c-2 -36 1 -113 8 -172 11 -93 15 -108 31 -108 18 0 19 4 22 114 1 46 23
42 30 -6 4 -23 12 -46 18 -49 8 -5 9 -12 2 -21 -10 -12 -12 -474 -3 -482 2 -2
23 -6 46 -10 50 -7 66 9 34 33 l-22 17 20 26 c19 24 20 28 6 54 -13 25 -13 30
2 46 16 18 12 48 -7 48 -15 0 -12 26 5 40 22 19 18 33 -16 52 -16 10 -27 14
-24 8 8 -13 -15 -24 -26 -13 -10 10 8 63 21 63 4 0 5 36 2 80 l-5 80 60 0 60
0 6 -137 c3 -76 5 -197 3 -270 -2 -72 1 -137 5 -144 11 -18 -21 -39 -48 -33
-22 6 -46 -23 -49 -58 -2 -24 5 -22 16 5 8 18 9 16 4 -13 -3 -19 -10 -45 -17
-58 -8 -18 -8 -25 1 -31 6 -4 12 -35 13 -70 2 -49 -2 -65 -14 -73 -19 -10 -12
-38 9 -38 20 0 17 -24 -6 -45 -25 -22 -26 -35 -2 -30 15 2 17 -6 17 -66 0 -49
-4 -72 -14 -78 -7 -5 -10 -14 -6 -21 6 -9 10 -9 16 1 6 9 8 -3 7 -32 -2 -26
-6 -45 -10 -42 -5 2 -8 -1 -8 -6 0 -6 5 -11 10 -11 6 0 10 -29 10 -66 l0 -65
63 2 62 3 3 -32 c3 -28 0 -32 -20 -32 -13 0 -35 6 -49 14 -14 7 -49 16 -77 20
l-52 7 0 -42 0 -42 140 6 140 7 0 -65 c0 -55 -3 -65 -20 -70 -13 -4 -20 -15
-20 -31 0 -15 -6 -24 -16 -24 -8 0 -13 4 -10 8 17 28 -59 51 -151 46 -74 -4
-85 0 -57 20 11 9 13 17 5 36 l-10 25 -1 -30 c-1 -28 -2 -29 -12 -9 -5 12 -20
27 -33 34 -13 7 -26 21 -28 31 -3 11 -14 19 -26 19 -27 0 -101 48 -101 65 0
16 22 25 61 25 42 0 36 15 -8 18 -20 2 -40 5 -45 8 -4 3 -8 -4 -8 -14 0 -16
-8 -21 -47 -24 -27 -3 -52 -1 -57 4 -6 4 -25 8 -44 8 -24 0 -31 -3 -26 -12 6
-10 4 -10 -8 0 -8 7 -23 10 -31 6 -11 -4 -22 4 -35 25 -10 17 -21 28 -25 25
-3 -3 -14 -1 -25 5 -18 10 -19 23 -18 328 1 175 4 323 8 329 4 6 2 25 -4 42
-17 45 2 82 42 82 16 0 30 5 30 11 0 5 4 8 9 5 14 -9 18 52 11 204 -6 142 -7
143 -8 41 -2 -102 -10 -135 -14 -53 -2 48 -5 51 -19 20 -9 -22 -9 -21 -4 4 3
14 8 34 12 44 4 11 3 15 -5 10 -6 -3 -12 3 -15 16 -2 13 -5 -13 -6 -56 0 -44
-4 -76 -8 -72 -4 4 -6 27 -4 51 1 27 -2 45 -8 45 -6 0 -12 -17 -13 -37 -1 -21
-4 -4 -8 37 l-6 75 -3 -70 c-1 -57 -4 -66 -13 -51 -7 12 -9 47 -5 95 3 42 2
83 -3 91 -7 10 -10 -16 -12 -80 l-2 -95 -6 90 c-5 77 -7 81 -8 31 -3 -103 -13
-53 -18 90 -2 76 -7 140 -9 143 -3 2 -5 -83 -5 -190 0 -112 -4 -188 -9 -180
-5 7 -10 9 -13 5 -2 -5 -6 -118 -7 -251 -3 -217 -1 -243 13 -243 20 0 21 -26
1 -34 -22 -8 -22 -344 -1 -352 11 -4 14 -18 10 -55 -5 -47 -4 -49 20 -49 29 0
40 -13 31 -39 -5 -16 -13 -18 -48 -15 -39 3 -41 2 -22 -12 11 -8 26 -12 35 -9
11 5 12 3 4 -5 -15 -15 -49 -17 -348 -25 -144 -3 -280 -8 -303 -11 -23 -2 -44
0 -48 6 -4 6 11 10 39 10 25 0 46 5 46 10 0 7 7 7 20 0 26 -14 45 -3 29 16 -9
11 -7 14 9 14 14 0 19 -5 16 -17 -5 -16 3 -18 81 -15 72 3 87 6 95 23 6 11 21
19 36 19 23 0 25 3 22 43 -3 41 -4 42 -40 45 -28 2 -37 -1 -41 -15 -3 -15 -6
-14 -15 8 -10 26 -11 26 -209 43 -109 9 -218 20 -243 24 l-45 7 3 53 c3 47 1
52 -17 52 -12 0 -21 5 -21 10 0 6 -5 10 -11 10 -6 0 -17 6 -24 14 -19 19 -3
32 53 41 86 14 48 30 -152 65 -65 11 -134 20 -152 20 l-34 0 0 -116 c0 -111 1
-115 20 -109 24 8 23 19 21 -202 l-2 -173 39 0 c21 0 73 3 115 6 l77 7 0 43 0
44 85 0 c47 0 88 0 93 1 4 0 8 -7 10 -15 3 -14 -94 -86 -115 -86 -6 0 -14 -12
-18 -27 -5 -21 -8 -24 -16 -12 -5 7 -9 9 -9 3 0 -7 -10 -15 -22 -19 -13 -5
-31 -11 -41 -14 -17 -5 -19 -23 -22 -190 -4 -194 -11 -226 -43 -183 -17 22
-17 22 -29 3 -10 -17 -10 -21 5 -25 27 -9 20 -56 -11 -80 -20 -15 -30 -17 -39
-8 -8 8 -5 14 15 23 27 12 36 29 17 29 -5 0 -10 11 -10 24 0 14 -4 28 -10 31
-5 3 -10 16 -10 28 0 15 -3 18 -11 10 -6 -6 -11 -24 -11 -38 0 -19 -3 -23 -9
-14 -8 12 -10 12 -18 0 -5 -8 -16 -11 -30 -6 l-21 6 0 -521 0 -522 30 4 c17 3
33 1 36 -4 3 -4 16 -8 30 -8 l24 0 -1 -130 c-2 -120 -3 -130 -20 -125 -25 8
-30 -6 -18 -49 9 -33 12 -36 22 -22 11 14 33 17 152 15 194 -3 249 -2 330 5
39 4 142 8 230 9 l160 2 3 -24 c2 -13 0 -27 -5 -31 -7 -7 -201 -21 -486 -34
-71 -4 -92 -8 -103 -23 -13 -17 -15 -17 -27 -1 -12 15 -30 17 -132 15 l-119
-2 -7 25 c-4 16 -7 19 -8 8 -1 -10 -5 -18 -11 -18 -5 0 -10 -7 -10 -15 0 -8
-9 -15 -20 -15 -11 0 -19 3 -19 8 3 20 -2 32 -16 32 -12 0 -15 -13 -15 -55 0
-52 1 -55 26 -55 26 0 58 -23 47 -34 -4 -3 -1 -6 5 -6 6 0 9 -7 6 -15 -10 -25
-34 -17 -34 10 0 20 -5 25 -25 25 -24 0 -25 -2 -25 -70 l0 -70 44 0 c39 0 43
-2 42 -22 -2 -35 -46 -56 -46 -23 0 8 -9 15 -20 15 -18 0 -20 -7 -20 -75 0
-60 3 -75 15 -75 8 0 20 9 27 20 7 11 16 20 19 20 12 0 31 -78 24 -99 -7 -23
-21 -26 -59 -11 l-26 10 0 -700 0 -700 3785 0 c2517 0 3785 3 3785 10 0 6 7
10 15 10 8 0 15 -4 15 -10 0 -7 407 -10 1200 -10 l1200 0 0 1765 c0 1352 -3
1765 -12 1765 -9 0 -9 3 0 12 14 14 16 42 2 33 -5 -3 -10 -1 -10 4 0 6 4 11 9
11 5 0 9 72 10 161 1 99 -2 159 -7 155 -6 -4 -6 9 -1 35 18 78 3 188 -17 134
-9 -22 -18 -19 -37 14 -20 35 -21 42 -4 39 7 -2 12 10 13 32 1 59 4 70 15 70
20 0 39 29 39 59 l0 31 -60 0 c-33 0 -63 0 -67 -1 -15 -1 -18 36 -18 221 0
181 -1 191 -20 197 -11 3 -72 5 -135 3 -180 -4 -174 -3 -178 -23 -2 -9 -7 -15
-12 -12 -5 3 -7 12 -3 20 4 11 1 13 -11 9 -13 -5 -16 -23 -16 -104 l0 -98 -27
-6 c-43 -9 -129 -10 -142 -2 -8 6 -11 52 -10 162 0 91 -3 160 -9 167 -6 7 -13
229 -17 587 -4 316 -10 580 -13 585 -4 6 -5 17 -4 26 2 12 -11 19 -54 27 -31
7 -60 10 -64 7 -5 -3 -11 1 -13 7 -4 10 -6 10 -6 1 -1 -18 -21 -16 -21 2 0 19
-7 19 -26 1 -9 -10 -14 -37 -14 -80 0 -37 -4 -66 -10 -66 -5 0 -10 -13 -10
-30 0 -16 5 -30 10 -30 16 0 12 -17 -6 -24 -9 -4 -23 -1 -30 5 -19 16 -18 78
1 85 11 5 15 23 15 73 0 37 5 72 11 78 7 7 -11 15 -63 27 -145 33 -186 32
-143 -4 24 -20 20 -236 -4 -251 -12 -7 -13 -12 -3 -15 17 -8 15 -63 -3 -70
-13 -5 -13 -8 -2 -18 25 -20 27 -45 6 -60 -17 -11 -18 -16 -7 -23 22 -12 29
-41 14 -55 -10 -10 -10 -17 2 -41 12 -25 12 -30 -1 -45 -13 -15 -13 -19 -1
-30 19 -17 18 -51 -1 -58 -13 -5 -13 -9 -3 -21 18 -23 20 -53 3 -53 -19 0 -19
-26 0 -34 8 -3 15 -17 15 -31 0 -16 -6 -25 -15 -25 -8 0 -15 -4 -15 -10 0 -5
7 -10 15 -10 10 0 15 -10 15 -30 0 -20 -5 -30 -15 -30 -23 0 -18 -27 6 -33 17
-5 20 -11 15 -29 -3 -13 -6 -42 -6 -65 0 -28 -4 -42 -12 -40 -6 1 -14 -6 -16
-16 -2 -10 2 -16 8 -15 7 2 16 -7 20 -19 7 -17 5 -23 -11 -28 -24 -8 -25 -33
-1 -51 16 -13 16 -15 0 -28 -19 -14 -24 -36 -9 -36 5 0 12 -7 15 -15 4 -11 -3
-19 -22 -27 -15 -6 -22 -12 -14 -15 6 -3 12 -20 12 -39 0 -30 -3 -34 -26 -34
-19 0 -25 4 -21 15 4 8 2 17 -3 20 -7 4 -6 13 0 25 7 13 7 21 -1 26 -7 4 -9
20 -6 40 3 19 2 34 -2 34 -4 0 -7 35 -6 78 2 80 -9 122 -32 122 -7 0 -13 4
-13 10 0 5 -3 9 -7 9 -45 -7 -68 26 -47 67 10 19 12 30 5 32 -6 2 -11 12 -11
22 0 10 -6 21 -12 23 -10 4 -10 6 0 6 6 1 12 11 12 24 0 18 -2 19 -10 7 -8
-13 -10 -13 -10 2 0 9 5 20 11 24 8 4 7 9 -2 15 -15 9 -14 68 2 83 16 17 11
56 -7 56 -13 0 -14 3 -5 14 13 16 -1 32 -18 21 -14 -8 -11 -227 3 -244 8 -11
8 -13 -1 -8 -9 6 -11 -53 -10 -250 2 -243 3 -258 21 -261 11 -2 16 0 12 6 -3
6 -2 13 4 17 12 7 13 -14 2 -32 -10 -16 -58 -27 -66 -15 -3 5 -8 103 -11 218
-3 115 -10 213 -16 218 -5 6 -9 19 -8 30 0 21 0 21 9 1 7 -16 9 -13 9 18 1 20
-3 37 -9 37 -15 0 -12 67 3 74 10 5 10 7 0 12 -16 7 -17 90 -3 99 6 4 7 12 3
18 -4 7 -8 17 -9 22 0 6 -2 17 -3 25 -1 13 -2 13 -11 0 -7 -11 -10 -6 -9 20 0
26 2 30 8 16 7 -18 8 -18 14 -2 9 22 9 41 1 33 -13 -12 -30 18 -26 46 4 23 -2
35 -27 58 -18 16 -37 27 -42 23 -15 -9 -22 25 -9 41 9 11 9 15 1 15 -6 0 -14
-14 -18 -31 -7 -35 -20 -27 -26 16 -4 27 -4 26 -6 -7 0 -21 -5 -38 -11 -38 -5
0 -10 17 -10 38 0 30 -5 39 -25 49 l-25 11 3 -443 c2 -434 2 -444 -18 -459
-38 -29 -40 -22 -44 118 -1 28 -2 28 -15 11 -12 -17 -13 -16 -20 10 -5 21 -2
36 12 54 24 33 32 179 8 148 -13 -17 -14 -16 -19 5 -4 13 -4 67 -2 122 2 65 0
105 -8 117 -9 15 -9 21 1 28 18 11 -5 28 -35 25 -13 0 -23 3 -23 8 0 5 -4 6
-10 3 -6 -4 -10 -55 -10 -121 0 -65 -5 -124 -11 -136 -6 -12 -7 -18 -1 -14 6
3 9 -12 7 -40 -3 -49 -15 -74 -15 -31 0 14 -4 29 -10 32 -6 4 -10 -15 -10 -49
0 -31 4 -56 10 -56 5 0 7 7 4 15 -4 8 -1 15 5 15 13 0 13 -28 2 -85 l-9 -40
-1 44 c-2 67 -14 40 -17 -37 -1 -37 -3 -71 -4 -77 -1 -5 -2 -25 -1 -43 l1 -33
32 22 c17 13 28 18 24 11 -4 -7 0 -19 9 -28 26 -27 15 -49 -28 -52 -33 -3 -37
-1 -38 20 -1 17 -3 18 -6 6 -5 -19 -23 -25 -23 -7 0 5 -5 7 -11 3 -9 -5 -10
12 -5 66 4 39 10 78 13 86 3 10 0 12 -10 8 -10 -3 -18 2 -22 17 -5 15 -10 18
-15 9 -12 -19 -22 18 -10 38 8 14 9 14 10 2 0 -11 2 -12 8 -3 4 7 9 54 10 105
2 79 1 90 -10 75 -11 -15 -18 -16 -41 -8 -37 14 -37 14 -37 -10 0 -18 -2 -19
-15 -9 -12 10 -15 10 -15 -1 -1 -8 -7 1 -15 20 -9 20 -13 49 -10 75 5 35 4 37
-5 17 -8 -19 -13 -22 -22 -13 -17 17 -28 15 -28 -4 0 -8 -5 -12 -10 -9 -6 4
-5 -5 2 -19 9 -21 8 -32 -2 -52 -13 -22 -16 -24 -26 -10 -10 15 -12 14 -18 -6
-5 -15 -9 -18 -13 -10 -4 10 -8 10 -19 1 -11 -9 -14 -8 -14 5 0 9 -7 16 -15
16 -11 0 -14 -10 -11 -47 2 -27 2 -40 -1 -30 -5 20 -23 23 -24 5 0 -7 -6 3
-11 22 -11 34 -11 34 -18 10 l-8 -25 -1 24 c-2 46 -13 12 -14 -43 -1 -54 -8
-68 -22 -45 -4 6 -13 8 -20 5 -7 -2 -18 1 -24 7 -8 8 -11 3 -11 -21 0 -18 5
-32 10 -32 6 0 10 -5 10 -11 0 -5 -4 -7 -10 -4 -6 4 -10 -12 -10 -42 l-1 -48
-18 23 c-13 15 -21 18 -24 10 -3 -7 -6 0 -6 15 -1 16 5 30 14 33 8 4 15 14 15
23 0 14 -2 14 -10 1 -5 -8 -10 -10 -10 -4 0 5 5 15 11 21 8 8 8 15 -2 26 -12
12 -15 12 -27 -2 -7 -9 -11 -11 -8 -4 4 7 -1 11 -14 10 -13 -1 -20 -8 -20 -22
0 -16 -2 -17 -10 -5 -10 16 -70 26 -70 11 0 -5 6 -11 13 -14 6 -2 8 -8 4 -13
-11 -11 -26 15 -28 46 0 14 -3 19 -6 13 -7 -18 -21 -16 -26 5 -3 9 -5 1 -6
-18 -2 -34 -3 -34 -12 -10 -6 14 -8 33 -5 42 2 10 0 21 -5 24 -5 3 -9 -19 -10
-48 0 -44 -2 -49 -10 -29 -5 13 -7 39 -3 57 7 40 -2 60 -21 44 -8 -7 -19 -9
-24 -5 -7 4 -9 -1 -5 -12 5 -16 3 -15 -11 2 -11 14 -15 36 -14 72 1 29 -1 56
-4 60 -4 3 -7 -45 -7 -108 0 -63 -4 -120 -9 -128 -5 -8 -9 35 -9 109 0 67 -3
124 -6 128 -3 3 -6 -51 -6 -121 0 -69 -4 -128 -9 -132 -6 -3 -9 42 -9 115 1
66 -2 123 -5 127 -4 3 -8 -52 -8 -123 -2 -147 -3 -172 -13 -182 -4 -4 -6 34
-5 84 3 95 -2 117 -26 107 -11 -4 -15 3 -15 26 0 24 4 31 19 31 32 0 34 18 5
45 -21 20 -25 29 -19 52 l8 28 7 -25 c5 -18 9 -21 13 -10 13 35 16 66 7 80 -9
13 -11 13 -19 0 -14 -21 -24 9 -19 60 2 22 0 36 -5 31 -5 -5 -9 -56 -9 -115 0
-58 -4 -106 -9 -106 -11 0 -12 181 -1 230 4 19 5 55 1 80 l-6 45 -2 -50 c-2
-27 -4 -59 -5 -70 -1 -11 -3 -122 -4 -247 -1 -157 -5 -228 -13 -228 -8 0 -10
75 -7 253 2 201 0 251 -9 238 -11 -14 -12 -14 -13 3 0 36 -18 3 -24 -44 -3
-25 -5 -51 -5 -57 -1 -7 -5 -13 -10 -13 -9 0 -8 48 2 115 4 22 2 58 -2 80 l-9
40 -1 -47 c0 -27 -5 -48 -11 -48 -5 0 -9 3 -9 8 1 4 0 14 -1 22 -2 8 -6 -5 -9
-30 -7 -51 -3 -82 10 -74 5 3 9 -22 9 -56 0 -42 -3 -59 -11 -54 -6 4 -8 20 -5
39 4 19 2 36 -3 39 -14 9 -19 -14 -13 -53 4 -24 2 -32 -6 -27 -14 8 -16 106
-3 106 5 0 7 39 4 90 -4 77 -2 90 11 90 11 0 16 9 15 28 -2 23 -2 24 -6 4 -5
-26 -23 -20 -23 9 0 10 -5 19 -10 19 -6 0 -8 -11 -4 -25 6 -25 -10 -36 -19
-12 -3 6 -6 -14 -6 -45 -1 -32 -5 -58 -11 -58 -6 0 -10 29 -10 67 0 36 -3 63
-7 59 -4 -4 -6 -38 -5 -76 2 -39 -1 -70 -5 -70 -5 0 -8 32 -8 70 0 66 -16 102
-23 53 -4 -27 -19 -30 -25 -5 -3 9 -5 -30 -6 -87 0 -57 -3 -102 -5 -100 -3 2
-6 50 -8 107 -4 119 -18 138 -19 25 0 -63 -2 -73 -10 -53 -6 14 -9 44 -7 68 2
23 0 42 -4 42 -5 0 -8 -45 -8 -101 0 -60 -4 -98 -9 -94 -6 3 -10 46 -10 97 0
50 -3 93 -6 96 -3 3 -5 -47 -5 -111 0 -68 -4 -117 -10 -117 -5 0 -11 -42 -13
-92 l-3 -93 -2 93 c-1 50 -5 92 -9 92 -12 0 -10 -1164 2 -1172 5 -4 15 -22 22
-40 6 -18 12 -26 12 -17 1 23 37 30 54 10 10 -10 12 -23 7 -36 -13 -30 -12
-33 13 -37 12 -2 27 -13 32 -26 6 -15 16 -21 28 -18 9 2 17 0 17 -5 0 -16 18
-9 23 9 3 9 5 2 6 -15 1 -30 4 -33 31 -33 17 0 30 -4 30 -9 0 -17 33 -22 53
-8 18 12 26 11 59 -5 35 -17 37 -21 35 -58 -1 -30 -6 -40 -19 -40 -10 0 -18 5
-18 10 0 7 -7 7 -21 0 -26 -14 -17 -24 22 -25 17 0 34 -6 38 -13 5 -8 33 -15
70 -16 42 -3 59 0 52 7 -5 5 -20 10 -33 11 -18 1 -23 7 -25 31 -1 17 0 24 3
18 3 -7 11 -13 18 -13 15 0 60 -52 64 -74 3 -17 -23 -22 -33 -6 -3 6 -10 10
-16 10 -14 0 -11 -30 7 -47 11 -11 12 -19 4 -27 -8 -8 -13 -7 -19 3 -7 10 -13
11 -27 2 -17 -9 -17 -10 -1 -11 9 0 17 -5 17 -11 0 -6 -7 -8 -16 -5 -14 5 -16
1 -10 -34 5 -32 3 -40 -9 -40 -8 0 -15 -9 -15 -19 0 -31 -19 -35 -45 -11 -24
22 -37 63 -25 77 3 4 3 24 -1 43 l-6 35 -2 -32 c0 -18 -5 -33 -10 -33 -5 0
-16 -3 -25 -6 -13 -5 -15 -1 -10 24 4 22 1 36 -10 47 -15 15 -17 15 -22 1 -8
-20 -24 -21 -24 -1 0 8 -7 15 -15 15 -9 0 -12 6 -9 18 5 14 4 15 -5 2 -9 -13
-16 -9 -48 22 -36 36 -37 38 -18 52 11 8 17 18 13 22 -4 4 -14 1 -22 -6 -13
-10 -19 -9 -31 4 -9 9 -12 16 -6 16 6 0 11 5 11 11 0 7 -10 5 -25 -5 -24 -16
-25 -16 -25 5 0 12 -3 20 -6 16 -6 -6 -34 16 -34 27 0 3 7 6 15 6 13 0 14 2 3
14 -7 8 -14 10 -16 5 -2 -5 -11 -5 -22 1 -15 8 -17 18 -13 52 5 37 4 40 -9 28
-8 -8 -13 -24 -11 -35 4 -19 4 -19 -7 -1 -10 15 -14 16 -21 5 -6 -9 -6 -1 -2
20 5 29 4 33 -10 28 -17 -6 -32 8 -40 38 -3 13 -5 8 -7 -15 -1 -19 -2 -38 -1
-42 0 -4 -6 -5 -14 -2 -21 9 -19 2 15 -41 28 -35 41 -73 21 -61 -5 4 -4 -5 2
-18 15 -31 18 -27 19 23 0 23 4 41 9 41 5 0 9 -7 9 -15 0 -8 6 -14 13 -12 7 1
13 -10 15 -25 3 -26 -10 -39 -21 -20 -2 4 -2 1 0 -6 1 -8 3 -22 3 -33 0 -13 5
-17 17 -12 11 4 14 3 9 -5 -4 -7 -21 -12 -38 -12 -25 0 -29 3 -25 20 3 11 1
20 -4 20 -5 0 -9 -6 -9 -13 0 -17 -55 -10 -70 8 -6 8 -18 11 -26 8 -8 -3 -14
1 -14 8 0 8 -18 22 -40 31 -31 13 -38 20 -33 34 4 12 3 15 -6 10 -7 -5 -22 1
-37 15 -13 12 -24 19 -24 14 0 -4 -9 0 -20 10 -11 10 -17 22 -13 28 3 6 1 7
-6 3 -6 -4 -18 -2 -26 4 -10 8 -15 9 -15 2 0 -6 11 -19 25 -30 14 -11 25 -25
25 -31 0 -6 5 -11 12 -11 6 0 8 -3 5 -7 -4 -3 -16 2 -27 12 -11 10 -20 13 -20
7 0 -6 5 -14 10 -17 6 -4 8 -9 6 -13 -2 -4 11 -7 30 -8 40 -1 57 -14 49 -37
-8 -20 -35 -11 -35 12 0 9 -10 -1 -22 -21 -12 -21 -26 -38 -31 -38 -4 0 -1 10
7 22 21 30 22 55 1 38 -10 -8 -15 -9 -15 -1 0 6 -10 10 -22 8 -23 -2 -23 0
-23 110 0 61 2 114 5 116 3 3 62 7 132 9 107 2 128 1 132 -12 3 -11 4 -11 5 2
1 15 8 17 46 13 41 -4 45 -2 45 18 2 89 -3 484 -6 537 -2 36 -3 123 -4 194 0
112 -2 127 -15 116 -12 -10 -14 -53 -15 -247 0 -134 -4 -242 -10 -251 -6 -12
-10 26 -12 123 -1 77 -3 149 -4 160 -1 11 -2 66 -3 123 l-1 102 -30 0 -30 0
-2 -357 -1 -358 -9 215 c-4 118 -8 262 -8 319 l-1 103 -24 -5 c-14 -2 -25 0
-25 4 0 5 12 9 26 9 22 0 25 4 22 27 -2 20 -9 27 -30 30 l-28 4 0 -271 c0
-148 -4 -270 -8 -270 -11 0 -22 180 -22 343 0 115 0 117 -23 117 -13 0 -35 -6
-50 -12 -23 -11 -27 -19 -27 -53 1 -22 1 -125 1 -229 0 -164 -2 -187 -15 -177
-12 10 -14 58 -16 269 0 141 -2 334 -4 427 -2 94 -4 241 -5 328 -1 100 -5 157
-11 157 -7 0 -9 -56 -7 -165 2 -90 0 -170 -5 -177 -4 -7 -8 53 -8 135 0 83 -4
147 -9 147 -5 0 -12 -8 -14 -17 -3 -10 -5 -2 -5 17 0 19 2 29 5 23 9 -24 23
-13 23 17 0 32 -16 41 -23 13 -4 -14 -5 -13 -6 4 0 12 -5 24 -10 28 -6 3 -10
-51 -10 -137 -1 -78 -3 -144 -6 -146 -3 -3 -5 58 -5 136 0 77 -4 143 -9 147
-6 3 -10 -53 -10 -142 -1 -80 -3 -149 -6 -151 -3 -3 -5 63 -5 146 0 84 -4 153
-9 157 -6 3 -12 -19 -14 -52 l-3 -58 -2 58 c-1 31 -6 57 -12 57 -6 0 -11 -51
-12 -127 l-2 -128 -3 125 c-2 68 -8 129 -14 135 -6 6 -9 -38 -8 -133 0 -79 -2
-146 -5 -149 -3 -4 -6 60 -6 140 0 91 -4 147 -10 147 -6 0 -11 -52 -12 -132
l-2 -133 -3 130 c-5 177 -22 188 -25 15 l-2 -135 -5 132 c-3 72 -9 135 -13
139 -5 4 -9 -51 -10 -122 l-2 -129 -3 120 c-2 66 -8 124 -13 129 -7 7 -11
-132 -12 -389 l-3 -400 -5 397 c-3 218 -8 400 -12 404 -5 4 -8 -4 -9 -17 0
-22 -1 -23 -9 -4 -5 11 -9 33 -9 49 -1 28 0 29 14 10 14 -19 14 -19 15 1 0 17
2 17 10 5 5 -8 14 -15 20 -15 6 0 15 -7 20 -15 8 -12 10 -12 10 5 1 19 1 19
14 2 10 -13 16 -15 21 -7 6 9 10 9 16 -1 8 -12 11 -11 19 1 6 10 10 11 10 3 0
-7 7 -10 15 -7 9 4 15 1 15 -7 0 -24 18 5 23 36 3 23 4 19 6 -15 1 -51 17 -44
24 10 4 33 4 33 5 -7 3 -80 21 -43 25 50 l3 92 2 -100 c2 -90 4 -98 17 -81 13
17 15 18 15 3 0 -9 5 -17 10 -17 11 0 14 248 4 286 -4 17 -12 20 -35 18 -18
-2 -29 1 -29 9 0 8 -4 7 -10 -3 -8 -12 -10 -12 -16 3 -5 14 -9 15 -20 6 -10
-8 -14 -8 -14 0 0 15 -47 14 -53 -1 -3 -8 -6 -6 -6 5 -1 25 -19 21 -24 -5 -4
-20 -4 -19 -6 5 -2 45 -20 30 -24 -20 l-3 -48 -3 55 c-1 51 -3 53 -16 36 -13
-17 -15 -18 -15 -3 0 32 -20 17 -21 -15 -1 -20 -3 -25 -6 -13 -14 68 -18 66
-23 -15 l-6 -85 -2 77 c-1 42 -6 80 -12 83 -6 3 -10 -4 -10 -17 -1 -21 -2 -20
-15 7 l-13 30 -2 -40 -2 -40 -8 38 c-10 54 -20 57 -21 6 -1 -24 -3 -35 -6 -24
-14 67 -14 69 -22 56 -6 -9 -11 -10 -15 -2 -12 19 -25 12 -29 -16 l-4 -28 -2
28 c0 16 -5 25 -11 22 -14 -8 -13 -48 2 -63 9 -9 9 -17 -2 -36 -9 -18 -10 -29
-3 -38 6 -7 10 -52 9 -100 -2 -76 0 -87 16 -91 10 -3 18 -2 18 2 0 7 15 11 52
12 15 0 18 15 21 117 l3 117 2 -128 c1 -82 6 -126 12 -122 6 3 11 18 11 33 1
21 3 18 10 -13 4 -22 8 -49 8 -59 1 -18 -1 -18 -25 5 l-25 24 6 -693 c3 -380
3 -703 -1 -716 -3 -13 -14 -26 -25 -29 -22 -6 -26 8 -4 17 15 5 21 57 8 69 -3
4 -13 1 -21 -6 -11 -8 -16 -9 -19 -1 -6 18 -51 4 -56 -18 -7 -23 1 -48 15 -48
5 0 6 -5 3 -10 -4 -6 -11 -8 -16 -5 -5 4 -9 1 -9 -5 0 -7 -6 -10 -14 -7 -8 3
-17 1 -20 -6 -2 -7 -5 -4 -5 6 -1 9 -5 17 -11 17 -6 0 -10 -28 -11 -62 -1 -75
-6 -107 -20 -124 -7 -8 -6 -13 2 -16 7 -2 14 -24 15 -49 3 -42 3 -43 -13 -24
l-16 20 8 -20 c18 -48 17 -52 -9 -57 -32 -6 -43 7 -22 28 22 22 19 36 -11 58
-14 11 -23 14 -19 7 13 -20 -2 -61 -22 -61 -16 1 -15 2 2 15 10 7 16 19 14 26
-3 8 -9 6 -21 -5 -19 -19 -23 -46 -7 -46 6 0 10 -5 10 -11 0 -5 -4 -7 -10 -4
-5 3 -10 -1 -10 -9 0 -8 -5 -18 -12 -22 -7 -4 -8 -3 -4 4 4 7 3 12 -3 12 -6 0
-7 8 -4 18 6 15 5 15 -10 3 -20 -16 -36 -6 -19 11 7 7 12 35 12 63 0 28 4 45
8 38 5 -8 8 3 8 25 1 57 23 173 39 207 8 17 15 43 17 60 2 24 8 30 28 30 19 0
25 5 25 24 0 31 -25 40 -32 12 -7 -27 -19 -27 -28 2 -6 21 -7 21 -15 -8 -5
-16 -7 -38 -5 -50 3 -11 0 -36 -5 -55 l-10 -35 4 42 c2 23 -2 53 -9 66 -7 13
-11 37 -9 53 3 31 -5 78 -13 70 -2 -2 -6 -31 -8 -65 -2 -46 1 -63 12 -70 13
-7 11 -12 -10 -35 -21 -22 -26 -24 -36 -12 -9 11 -10 25 -2 52 11 38 7 59 -10
49 -5 -4 -9 -25 -9 -48 0 -27 -3 -37 -9 -29 -6 11 -13 7 -29 -13 -19 -23 -23
-25 -28 -11 -6 15 -8 15 -19 -1 -18 -26 -35 -92 -25 -98 4 -3 6 -15 3 -28 -4
-18 -3 -19 6 -7 9 13 11 11 11 -7 0 -12 -4 -25 -10 -28 -5 -3 -10 -17 -10 -30
0 -13 -5 -27 -11 -30 -7 -5 -8 5 -4 32 5 28 4 34 -4 23 -9 -12 -11 -10 -11 13
0 15 5 27 10 27 17 0 11 38 -7 49 -15 8 -16 13 -5 30 6 12 12 38 13 58 0 21 4
47 8 57 7 18 8 18 14 3 3 -9 13 -17 21 -17 8 0 17 -6 19 -12 4 -10 6 -10 6 0
1 6 7 12 14 12 7 0 14 14 15 31 2 19 -2 28 -8 24 -5 -3 -10 -14 -10 -24 0 -32
-13 -32 -27 1 -8 18 -17 28 -21 23 -13 -18 -42 -14 -42 6 0 10 5 21 10 24 18
11 12 47 -7 43 -11 -2 -18 -12 -17 -25 0 -12 -4 -19 -9 -16 -5 3 -7 20 -4 38
3 21 0 41 -10 55 -14 20 -17 21 -25 5 -7 -12 -5 -20 8 -30 17 -12 17 -14 1
-29 -19 -20 -22 -42 -7 -51 6 -4 9 -14 6 -23 -3 -10 -8 -46 -11 -81 -2 -35 -8
-67 -11 -70 -4 -3 -4 10 -1 29 3 19 0 52 -5 72 -10 34 -12 36 -24 20 -8 -10
-9 -23 -3 -33 5 -10 5 -40 -1 -72 -10 -65 -8 -89 10 -95 10 -4 12 6 7 44 -3
29 -3 41 2 29 5 -11 11 -47 14 -80 4 -39 3 -50 -2 -30 -7 24 -9 25 -10 8 -1
-23 -21 -43 -21 -22 0 7 -3 10 -6 7 -3 -4 -1 -16 6 -28 10 -19 5 -68 -7 -57
-7 8 -30 189 -28 225 1 17 -2 32 -7 32 -4 0 -8 9 -8 20 0 11 4 20 8 20 10 0
32 44 32 62 0 7 -6 4 -13 -7 -23 -30 -31 1 -10 36 14 24 15 33 5 36 -9 3 -11
15 -6 39 4 22 2 34 -5 34 -6 0 -11 -15 -11 -34 0 -28 -4 -35 -25 -40 -19 -5
-25 -13 -24 -34 0 -15 3 -21 6 -14 6 15 23 6 23 -14 0 -8 -9 -14 -20 -14 -18
0 -19 -7 -18 -72 1 -84 6 -100 23 -68 12 23 12 23 12 -6 1 -33 6 -61 15 -69 8
-8 -3 -55 -13 -55 -5 0 -4 11 1 25 6 16 6 25 0 25 -6 0 -10 11 -10 25 0 22 -4
25 -25 21 -24 -4 -25 -2 -25 39 0 29 -5 45 -15 49 -12 4 -15 -5 -15 -54 0 -60
-13 -87 -23 -48 -4 12 -1 28 4 35 11 12 8 17 -29 58 -7 8 -15 28 -18 44 -4 17
-13 31 -20 31 -19 0 -18 -29 2 -37 16 -6 15 -32 -1 -75 -4 -11 -3 -18 4 -18 6
0 11 12 12 28 0 26 1 26 9 4 5 -12 11 -40 12 -62 2 -23 8 -40 15 -40 7 0 18
-19 25 -42 6 -24 15 -45 19 -48 3 -3 10 -16 14 -30 7 -21 6 -23 -6 -13 -12 10
-15 8 -16 -8 -1 -10 2 -19 8 -19 5 0 9 -12 9 -27 -1 -27 -1 -27 -21 10 -11 21
-17 42 -14 48 4 5 1 8 -6 7 -7 -2 -15 6 -17 16 -3 15 0 17 14 12 15 -6 16 -5
7 5 -10 10 -15 9 -27 0 -13 -11 -16 -8 -22 14 -3 14 -4 44 -1 66 3 21 1 42 -4
45 -5 3 -9 -1 -9 -8 0 -9 -3 -9 -10 2 -7 11 -10 7 -10 -17 0 -18 5 -33 10 -33
6 0 10 -7 10 -15 0 -8 -4 -15 -8 -15 -18 0 -9 -37 11 -45 12 -6 24 -21 25 -35
2 -13 14 -34 27 -45 13 -11 28 -38 34 -60 9 -33 8 -42 -4 -51 -20 -15 -55 -6
-55 14 0 8 -2 13 -5 10 -11 -11 7 -58 22 -58 9 0 13 -7 9 -17 -2 -10 -7 -28
-11 -40 -3 -12 -1 -32 5 -43 7 -12 9 -24 6 -27 -3 -3 -10 5 -14 18 l-9 24 -7
-23 c-5 -14 -3 -29 5 -38 8 -10 9 -18 2 -25 -7 -7 -17 -2 -30 18 -44 63 -51
182 -12 206 23 15 27 62 4 53 -9 -3 -15 0 -15 10 0 8 -6 17 -14 20 -20 8 -29
55 -17 86 5 15 6 30 0 39 -7 12 -9 12 -9 0 0 -8 -3 -11 -7 -7 -13 13 -9 84 4
79 6 -3 9 -12 6 -20 -4 -11 -2 -14 5 -9 7 4 12 1 12 -8 0 -9 5 -16 10 -16 14
0 13 4 -11 45 -14 22 -19 44 -15 59 3 14 2 26 -3 28 -6 2 -6 36 1 88 6 48 6
86 1 87 -5 2 -8 36 -6 76 2 66 1 68 -7 27 -5 -25 -7 -76 -4 -115 4 -52 2 -78
-10 -99 -15 -29 -15 -28 -9 27 4 37 2 57 -5 57 -5 0 -8 -10 -4 -22 3 -14 1
-19 -6 -14 -7 4 -10 25 -7 54 l5 47 -14 -35 c-8 -20 -12 -51 -9 -72 6 -42 -13
-55 -21 -15 -3 12 -7 31 -9 42 -3 12 -5 8 -6 -11 0 -17 6 -48 14 -68 9 -20 17
-60 19 -89 2 -28 7 -60 11 -70 4 -10 2 -36 -5 -57 -8 -25 -10 -57 -5 -92 17
-124 17 -141 3 -132 -11 6 -11 5 0 -8 7 -9 12 -29 10 -45 l-3 -28 -20 30 c-17
25 -20 46 -20 140 0 75 -4 114 -12 123 -7 7 -13 10 -13 5 0 -5 5 -14 12 -21 6
-6 9 -15 5 -18 -9 -10 -79 -6 -89 4 -6 6 -18 160 -18 239 0 7 -24 15 -61 19
-49 5 -62 11 -69 28 -8 19 -9 19 -9 2 -1 -17 -7 -18 -68 -11 -82 8 -83 9 -83
43 0 43 -11 50 -90 58 l-76 6 -2 -33 c-1 -18 -5 -35 -7 -38 -5 -5 -263 26
-297 36 -22 6 -23 29 -2 37 9 3 55 6 103 6 49 0 92 5 98 11 7 7 13 7 17 1 3
-6 15 -8 26 -5 19 5 20 14 20 268 l0 264 -30 -9 c-17 -5 -54 -11 -83 -15 -28
-3 -60 -8 -69 -11 -46 -13 -68 -17 -125 -20 l-63 -4 0 30 c0 18 5 29 12 27 7
-1 14 8 16 20 2 15 13 25 30 29 15 3 52 12 83 20 31 8 64 14 73 14 9 0 48 12
86 27 57 22 70 31 70 49 0 19 -8 23 -63 33 -35 6 -71 11 -80 11 -14 0 -17 16
-19 107 l-3 107 -40 8 c-22 3 -114 19 -205 33 -91 15 -168 32 -172 38 -4 7 -8
26 -8 44 0 17 -4 35 -10 38 -6 4 -10 85 -10 210 0 125 -4 206 -10 210 -6 4
-10 73 -10 176 0 156 -1 169 -18 169 -10 0 -23 5 -30 12 -9 9 -12 9 -12 0 0
-14 -20 -12 -38 6 -15 14 -29 16 -36 4z m2034 -2078 c0 -8 4 -13 9 -9 6 3 15
-3 20 -14 9 -16 8 -18 -10 -14 -19 5 -21 2 -16 -31 3 -20 1 -36 -4 -36 -5 0
-9 -8 -9 -17 0 -15 -2 -16 -10 -3 -8 12 -10 11 -10 -6 0 -12 -7 -28 -16 -35
-11 -9 -14 -23 -11 -45 3 -19 1 -34 -5 -36 -8 -3 -7 -10 1 -25 6 -12 11 -42
11 -66 0 -42 -1 -44 -25 -39 -22 4 -25 1 -25 -26 0 -17 -5 -34 -11 -38 -8 -5
-10 6 -7 34 2 23 -1 38 -6 35 -5 -4 -7 9 -3 31 3 22 2 34 -4 31 -15 -10 -10
33 7 49 8 9 13 20 9 25 -8 13 30 82 40 73 4 -4 5 6 1 21 -4 19 -3 26 4 22 5
-3 10 1 10 9 0 9 7 13 20 11 15 -3 20 1 20 18 0 12 -4 28 -9 36 -5 7 -4 25 2
41 11 29 27 31 27 4z m2870 -44 c0 -5 -8 -14 -17 -19 -16 -9 -16 -10 5 -11 26
0 29 -21 6 -55 -20 -30 -38 -33 -31 -5 3 11 0 23 -6 27 -7 4 -8 -16 -3 -67 l6
-73 -25 17 c-24 16 -25 16 -25 -9 0 -22 4 -25 20 -20 34 11 38 -24 6 -52 -31
-26 -53 -29 -80 -8 -17 13 -18 19 -8 52 6 20 10 38 8 40 -4 5 -24 -39 -30 -69
-5 -24 -10 -27 -34 -23 -15 3 -37 7 -49 8 -12 2 -25 6 -29 9 -3 4 2 39 12 78
15 62 21 74 46 84 15 7 25 15 21 19 -13 14 70 76 106 80 72 7 101 7 101 -3z
m250 -15 c0 -15 -12 -25 -49 -40 -29 -11 -47 -24 -44 -30 2 -7 -5 -15 -16 -18
-12 -3 -21 -13 -21 -22 0 -15 1 -15 16 -1 8 9 22 16 31 16 9 0 13 6 10 14 -4
10 -1 13 8 10 20 -8 28 -36 13 -46 -10 -7 -10 -8 2 -7 32 3 36 -2 32 -33 -2
-18 -9 -38 -14 -44 -5 -7 -11 -21 -13 -33 -6 -31 -56 -71 -85 -68 -23 2 -25 6
-23 49 1 27 9 58 17 70 20 28 20 38 1 38 -9 0 -13 7 -11 18 9 38 19 62 26 62
4 0 14 15 21 33 19 46 30 55 67 54 25 -1 32 -5 32 -22z m-2501 -209 c-1 -116
-4 -190 -9 -176 -7 21 -8 18 -10 -20 -1 -25 -4 -39 -7 -32 -2 6 -11 12 -19 12
-8 0 -15 10 -15 23 l-2 22 -4 -22 c-5 -29 -23 -30 -23 -3 0 11 8 24 17 27 15
6 14 7 -3 13 -12 5 -23 1 -31 -9 -11 -14 -12 -14 -13 2 0 10 5 27 10 37 6 11
6 21 1 24 -5 4 -12 -8 -16 -25 -4 -17 -13 -33 -21 -36 -8 -3 -14 -12 -14 -21
0 -13 -3 -12 -15 4 -14 18 -14 18 -15 -6 0 -20 -2 -22 -10 -10 -8 12 -10 10
-10 -8 0 -16 4 -21 13 -16 7 5 6 0 -3 -11 -14 -17 -15 -16 -22 21 -4 21 -5 76
-3 122 4 61 2 81 -7 76 -10 -7 -8 13 8 67 2 9 -2 16 -11 16 -11 0 -15 -11 -15
-41 0 -23 -5 -48 -10 -56 -7 -10 -10 23 -10 104 0 100 2 117 14 107 11 -9 17
-9 27 2 9 8 43 14 94 16 44 1 81 3 82 5 2 2 15 1 28 -2 l25 -4 -1 -202z m-908
79 c4 3 11 -7 15 -22 3 -15 8 -37 11 -48 3 -15 2 -16 -5 -6 -7 9 -12 10 -16 2
-4 -6 -2 -11 4 -11 7 0 9 -9 5 -22 -6 -20 -4 -19 12 5 11 15 23 24 26 20 11
-10 8 -25 -3 -18 -6 4 -10 -8 -10 -30 0 -41 -26 -99 -40 -90 -6 4 -10 -1 -10
-9 0 -8 5 -18 10 -21 6 -3 10 0 10 8 0 8 6 20 14 26 11 9 15 5 19 -19 4 -17 1
-41 -5 -55 -10 -22 -12 -23 -23 -8 -16 22 -38 7 -32 -23 2 -14 0 -27 -4 -30
-5 -3 -9 13 -9 35 0 22 5 43 10 46 16 10 11 28 -6 21 -12 -5 -15 -2 -10 10 3
8 6 22 6 29 0 7 11 26 24 42 21 25 22 31 10 48 -14 19 -18 12 -15 -25 1 -8
-10 -28 -24 -44 -14 -16 -25 -25 -26 -20 0 5 -5 0 -10 -11 -6 -14 -8 0 -4 44
3 35 5 76 5 92 0 23 3 26 21 22 18 -5 20 -3 15 15 -4 12 -2 32 5 44 8 14 14
18 17 10 2 -6 8 -10 13 -7z m1845 3 c23 -8 34 -18 32 -29 -2 -9 2 -16 7 -16 6
-1 9 4 7 11 -2 6 7 1 20 -11 30 -29 59 -32 35 -5 -10 10 -14 22 -10 26 4 4 0
4 -8 1 -9 -3 -22 2 -30 11 -9 12 -10 15 -1 10 6 -4 12 -3 12 2 0 11 49 10 68
-1 6 -5 16 -5 22 -2 5 3 26 3 46 -1 28 -5 35 -10 31 -25 -3 -10 0 -20 7 -23 6
-2 -13 -5 -41 -5 -30 -1 -53 -6 -53 -12 0 -5 -4 -7 -10 -4 -15 9 -12 -4 4 -21
8 -8 24 -14 35 -14 13 0 21 -7 21 -17 0 -15 2 -16 10 -3 6 10 10 11 10 3 0 -7
6 -12 12 -10 7 1 14 -8 16 -20 2 -16 10 -23 26 -23 29 0 55 -27 35 -35 -18 -7
-80 -2 -77 7 2 3 -5 15 -15 25 -9 11 -14 23 -10 26 3 4 -3 7 -14 7 -14 0 -20
-6 -19 -17 2 -28 -35 -22 -74 12 -19 16 -29 23 -22 15 29 -34 10 -40 -33 -10
-25 17 -45 38 -45 46 0 8 -7 17 -16 21 -15 6 -15 8 2 21 19 14 19 15 0 8 -24
-8 -69 20 -59 37 5 9 3 9 -9 0 -8 -7 -18 -9 -23 -5 -4 4 0 -5 10 -20 9 -16 21
-28 26 -28 5 0 9 -4 9 -10 0 -5 -7 -10 -15 -10 -8 0 -15 -4 -15 -9 0 -11 -38
-2 -46 11 -4 6 0 14 7 19 12 7 11 9 -1 10 -10 0 -9 3 5 10 18 8 17 9 -5 6 -16
-2 -34 5 -50 20 l-25 23 43 -3 c24 -2 45 -1 47 2 7 12 88 11 121 -1z m2891
-96 c1 -31 -2 -50 -7 -47 -6 4 -10 1 -10 -4 0 -6 -7 -11 -15 -11 -8 0 -15 -5
-15 -11 0 -5 5 -7 10 -4 6 3 10 -5 10 -19 0 -13 -6 -27 -12 -29 -8 -3 -6 -6 5
-6 13 -1 17 7 18 32 l1 32 8 -30 c4 -16 8 -25 9 -20 1 6 5 4 9 -2 4 -7 24 -15
43 -17 22 -3 33 -8 30 -17 -7 -24 -1 -74 9 -77 6 -2 10 -8 10 -13 0 -6 -5 -7
-11 -3 -8 5 -10 -4 -7 -29 3 -26 0 -38 -11 -42 -20 -8 -32 15 -26 50 4 27 3
28 -7 10 -6 -11 -11 -51 -11 -88 0 -49 -3 -70 -13 -74 -8 -3 -14 -10 -14 -15
0 -6 7 -8 15 -4 12 4 14 0 9 -21 -5 -20 -4 -24 6 -18 10 6 12 4 7 -8 -3 -9 -2
-19 3 -22 6 -4 10 -14 9 -23 0 -10 -3 -12 -5 -5 -3 7 -11 10 -18 7 -9 -4 -12
-18 -9 -48 4 -32 1 -47 -13 -61 -23 -22 -30 -6 -15 35 6 18 6 30 0 30 -11 0
-12 33 -2 44 10 10 10 165 1 159 -11 -6 -10 11 2 23 9 9 -5 91 -20 107 -3 4
-18 -3 -33 -17 -21 -19 -28 -22 -37 -11 -6 7 -19 12 -28 10 -9 -2 -20 -4 -24
-4 -5 -1 -8 -11 -8 -23 1 -22 1 -23 15 -4 8 11 15 14 15 7 0 -7 5 -9 10 -6 6
3 10 3 10 -1 0 -9 -50 -55 -51 -46 0 4 -4 -2 -9 -13 -7 -18 -9 -18 -20 10 -10
25 -8 37 11 76 17 38 19 52 11 75 -9 26 -10 27 -11 6 -1 -13 -5 -21 -11 -17
-5 3 -7 12 -3 20 4 11 1 13 -11 9 -9 -3 -16 -11 -15 -18 3 -27 -2 -33 -27 -28
l-27 5 22 -22 c11 -11 21 -29 20 -38 0 -15 -2 -15 -9 2 -5 12 -9 14 -9 6 -1
-11 -5 -10 -16 5 -14 18 -14 18 -10 -4 3 -19 1 -22 -15 -17 -10 3 -21 1 -25
-5 -13 -21 -23 -9 -18 23 3 17 7 41 8 52 3 27 3 27 26 14 18 -9 20 -8 15 8 -5
17 -9 83 -7 111 1 6 6 12 12 12 18 0 39 28 33 44 -7 18 14 49 27 40 5 -3 9 2
9 12 0 15 2 15 25 0 29 -19 51 -21 58 -3 4 7 6 6 6 -5 1 -9 -5 -19 -11 -21 -7
-3 -2 -6 11 -6 24 -1 24 -1 5 -16 -17 -13 -16 -13 13 -3 26 10 34 20 39 46 6
29 10 33 33 30 24 -3 26 -7 28 -56z m-3903 -217 c14 36 16 6 3 -34 -8 -22 -11
-38 -6 -35 19 11 9 -63 -11 -81 -24 -22 -29 -75 -6 -55 8 6 16 21 18 33 2 12
5 -9 6 -48 1 -52 -1 -66 -9 -55 -9 12 -10 11 -6 -8 3 -12 1 -20 -4 -16 -5 3
-9 0 -9 -5 0 -18 -18 -12 -23 7 -4 14 -5 14 -6 -3 -1 -14 -8 -21 -21 -21 -11
0 -20 3 -20 7 0 4 -11 6 -24 5 -20 -3 -25 2 -29 28 -5 36 8 67 26 61 6 -3 17
-1 23 3 16 10 45 82 33 82 -5 0 -9 5 -9 10 0 6 3 9 8 9 18 -3 26 2 14 9 -10 7
-10 18 0 55 7 26 16 47 21 47 4 0 6 10 3 23 -4 15 -1 13 8 -7 11 -24 14 -26
20 -11z m-181 -714 c-2 -12 0 -20 5 -18 4 3 7 -5 7 -17 0 -17 -5 -22 -17 -18
-13 3 -18 -2 -19 -19 0 -13 -2 -58 -4 -99 -2 -41 -4 -86 -5 -100 0 -24 -1 -23
-16 7 -13 25 -14 36 -5 47 9 10 8 16 -4 26 -8 7 -15 8 -15 3 0 -5 -7 -10 -15
-10 -8 0 -12 4 -9 9 3 4 1 8 -4 8 -5 0 -14 11 -20 25 -10 22 -8 32 15 68 23
37 27 40 34 22 7 -16 8 -14 6 10 -1 20 2 29 11 27 8 -1 11 2 7 8 -8 13 25 50
40 46 6 -2 9 -13 8 -25z m-2772 -533 c3 -65 -4 -234 -9 -240 -12 -12 -192 -15
-202 -3 -7 9 -16 210 -11 246 1 3 51 6 111 8 84 1 110 -1 111 -11z m1807 -170
c7 -7 12 -40 12 -78 l0 -66 30 -2 c27 -2 30 0 30 28 0 41 26 39 36 -2 4 -18 6
-71 5 -118 -4 -115 -4 -135 4 -285 19 -370 20 -455 8 -459 -22 -9 -26 14 -31
183 -2 91 -8 171 -14 178 -5 7 -5 12 2 15 8 2 8 11 2 28 -5 14 -8 65 -6 114 3
83 2 91 -20 111 -25 23 -86 30 -98 11 -5 -7 -13 -5 -25 7 -16 16 -16 17 10 17
15 0 30 0 33 -1 4 0 11 5 15 13 7 10 9 10 9 1 0 -8 14 -13 35 -13 l35 0 0 65
c0 57 -2 65 -19 65 -38 0 -51 -11 -51 -46 0 -24 -5 -34 -15 -34 -18 0 -21 50
-2 50 6 0 3 6 -7 12 -14 8 -85 9 -242 5 -180 -6 -223 -4 -227 6 -13 34 8 38
224 44 148 4 217 10 226 18 8 9 11 36 9 79 -4 67 5 81 32 54z m5242 -29 c0
-10 -4 -27 -9 -37 -5 -9 -14 -42 -19 -72 -9 -54 -9 -54 -11 -13 l-1 41 -37 -4
c-90 -9 -431 -24 -566 -24 -140 0 -147 1 -147 20 0 19 7 20 193 21 105 0 219
2 252 4 33 2 117 7 188 11 124 6 127 7 127 29 0 32 10 56 21 49 5 -3 9 -14 9
-25z m-3776 -57 c1 -18 -3 -32 -9 -32 -5 0 -3 -4 5 -10 12 -8 12 -10 -4 -16
-14 -5 -15 -9 -4 -15 10 -7 10 -9 1 -9 -7 0 -13 -8 -13 -17 0 -15 2 -16 10 -3
8 13 10 12 10 -3 0 -25 -24 -16 -28 10 -4 26 -19 33 -55 26 -23 -5 -27 -10
-27 -38 0 -33 0 -33 -57 -39 -32 -4 -83 -7 -113 -8 -86 -1 -90 -3 -79 -41 5
-18 12 -79 16 -136 l6 -103 -22 12 c-12 6 -54 11 -94 10 -96 -2 -99 -2 -92 10
3 6 -5 10 -19 10 -18 0 -24 -4 -20 -15 7 -18 -17 -20 -34 -3 -9 9 -12 9 -12
-2 0 -13 -2 -13 -10 0 -6 10 -10 11 -10 3 0 -7 -4 -13 -10 -13 -5 0 -10 7 -10
16 0 11 6 15 20 11 13 -3 20 0 20 8 0 10 23 14 88 17 48 2 88 1 90 -2 1 -3 21
-4 43 -2 27 3 39 1 35 -6 -3 -5 1 -12 9 -16 16 -6 21 15 8 28 -8 8 -9 13 -12
40 -1 10 -15 16 -43 18 -38 3 -43 6 -46 30 -2 19 2 27 15 30 10 3 -18 5 -61 6
-95 3 -114 11 -30 14 32 0 64 2 69 3 6 2 29 3 53 4 41 1 43 2 40 29 -3 25 -6
27 -48 27 l-45 0 -3 52 -3 52 -102 -2 c-86 -2 -102 0 -105 14 -2 14 19 17 170
22 95 4 242 7 326 7 l152 0 0 23 c0 49 33 48 34 -1z m1416 5 c0 -18 2 -19 10
-7 9 13 10 13 10 0 -1 -8 -7 -24 -16 -35 -13 -17 -25 -20 -97 -18 -45 1 -93 5
-106 9 -23 7 -24 6 -18 -34 4 -22 3 -52 -3 -66 -6 -16 -6 -27 0 -31 6 -4 7
-17 4 -30 -9 -34 -8 -196 0 -220 7 -19 6 -19 -12 2 -18 20 -28 21 -182 22
-154 2 -180 4 -169 16 7 7 129 14 242 15 l97 0 0 55 0 56 -92 -2 c-66 -1 -93
2 -96 11 -3 9 -6 9 -11 1 -11 -18 -100 -18 -111 -1 -8 13 -10 12 -10 -2 0 -10
-4 -18 -10 -18 -5 0 -10 11 -10 25 l0 24 161 0 c88 -1 163 1 165 4 3 3 6 39 7
81 l2 76 -222 -4 c-215 -4 -223 -4 -223 15 0 18 11 19 335 19 l335 0 0 36 c0
21 4 33 10 29 6 -3 10 -16 10 -28z m1546 -134 c0 -120 -4 -172 -12 -181 -8 -8
-15 -9 -19 -2 -8 13 4 32 16 25 14 -9 11 3 -7 30 -9 14 -23 25 -31 25 -9 0
-13 6 -10 14 3 8 1 17 -6 20 -7 2 0 5 14 5 25 1 26 2 21 59 -2 31 -6 58 -7 60
-2 3 -398 12 -522 12 -14 0 -23 6 -23 15 0 13 30 15 208 15 114 0 237 3 275 7
66 6 67 6 67 34 0 21 5 29 18 29 16 0 17 -14 18 -167z m-2597 32 c1 -49 6
-173 11 -275 14 -256 13 -300 -4 -300 -10 0 -15 48 -20 238 -6 201 -10 240
-24 256 -9 10 -16 20 -14 22 1 2 2 22 2 44 l0 40 -84 0 c-45 0 -111 3 -145 6
-52 6 -61 10 -61 27 0 16 5 18 33 14 17 -4 80 -9 138 -13 99 -6 108 -5 117 13
6 10 19 19 30 19 17 0 19 -9 21 -91z m-2359 64 c0 -11 5 -17 10 -14 6 4 7 11
4 17 -4 7 -2 8 4 4 8 -5 9 -13 2 -25 -5 -10 -6 -22 -2 -26 4 -5 0 -6 -9 -2
-13 4 -16 1 -12 -14 3 -10 10 -19 15 -19 6 0 8 -11 4 -27 -19 -79 -29 -236
-15 -228 12 8 11 -2 -3 -28 -8 -14 -11 -58 -9 -121 3 -99 -10 -126 -23 -46 -6
39 -19 47 -58 41 -5 0 -8 3 -8 9 0 5 11 10 24 10 19 0 25 6 28 30 3 21 0 34
-11 40 -14 8 -14 9 2 10 14 0 17 9 17 46 0 25 5 54 10 65 10 18 7 19 -40 19
-30 0 -50 4 -50 11 0 8 -4 8 -12 1 -19 -15 -150 -15 -160 1 -12 19 -9 25 10
22 9 -2 69 -6 133 -8 l116 -5 7 66 c4 38 3 69 -3 75 -8 8 -146 9 -493 3 -59
-1 -105 1 -102 6 3 4 11 8 19 8 7 0 15 6 18 14 4 11 62 15 286 21 l281 7 0 29
c0 16 5 29 10 29 6 0 10 -9 10 -21z m4284 -62 c3 -40 8 -115 11 -167 3 -52 8
-143 11 -201 3 -61 1 -109 -4 -113 -5 -3 -12 57 -16 142 -3 81 -10 161 -15
177 -5 17 -10 24 -10 18 -1 -7 -14 -13 -29 -13 -22 0 -28 5 -30 25 -1 21 2 25
27 25 l28 0 -5 95 c-4 83 -2 95 11 89 11 -4 17 -26 21 -77z m-2999 64 c-3 -5
-1 -12 5 -16 5 -3 8 -16 6 -28 -3 -12 -5 -43 -5 -69 -1 -36 -5 -48 -16 -48
-12 0 -15 14 -15 63 l0 62 -42 -1 c-505 -16 -568 -16 -568 0 0 14 16 16 108
17 86 1 494 22 525 28 5 0 6 -3 2 -8z m2307 -15 c5 -10 5 -24 -2 -36 -6 -11
-7 -20 -2 -20 10 0 14 -75 13 -230 0 -19 1 -44 2 -55 1 -15 -5 -21 -26 -23
-23 -3 -26 -6 -16 -18 9 -11 8 -14 -5 -14 -9 0 -16 7 -16 15 0 10 -10 15 -30
15 -23 0 -30 5 -30 19 0 24 16 36 23 19 4 -10 7 -10 15 0 5 7 13 12 18 11 38
-7 44 1 44 56 0 53 -1 55 -24 49 -13 -3 -27 -1 -30 4 -4 7 -17 7 -36 2 -21 -6
-32 -4 -40 6 -22 25 -6 38 46 36 70 -3 76 3 72 84 l-3 69 -57 3 c-51 3 -67 9
-54 23 2 2 32 3 67 3 45 -1 64 -6 71 -18z m-4884 -29 c-1 -12 1 -28 6 -35 4
-7 3 -18 -3 -25 -5 -7 -6 -18 -2 -25 10 -16 3 -287 -9 -312 -1 -3 -5 6 -9 20
-7 24 -9 24 -91 21 -47 -1 -88 -5 -93 -8 -4 -2 -14 3 -23 11 -14 15 -14 16 3
17 80 3 180 10 190 14 8 3 11 29 9 87 -2 46 -4 103 -5 126 l-1 44 -105 -7
c-87 -6 -105 -5 -105 7 0 7 8 14 18 15 156 14 201 23 195 39 -7 20 5 47 18 39
5 -4 9 -17 7 -28z m-1538 4 c0 -17 -51 -20 -394 -27 -235 -4 -337 -3 -332 4 6
10 49 12 224 12 9 0 98 4 197 8 267 13 305 13 305 3z m5000 -80 c0 -28 -4 -53
-10 -56 -17 -10 -11 -25 8 -19 15 5 15 4 1 -5 -13 -9 -15 -18 -9 -46 4 -19 7
-53 6 -74 0 -22 3 -37 8 -33 5 3 6 -5 1 -19 -7 -21 -8 -63 -3 -119 3 -41 -3
-100 -11 -100 -5 0 -9 42 -10 93 -1 50 -4 107 -8 125 l-6 34 -63 -7 c-54 -5
-64 -4 -64 9 0 13 11 16 63 13 l62 -2 0 50 0 50 -57 3 c-39 2 -58 8 -62 18
-11 28 5 35 63 33 l56 -3 -3 52 c-3 47 -1 52 17 52 18 0 21 -6 21 -49z m-4052
-123 c3 -165 -2 -208 -24 -208 -9 0 -12 5 -8 11 5 9 -4 10 -31 5 -28 -6 -35
-4 -29 5 5 9 2 10 -12 5 -36 -15 -54 -18 -71 -12 -29 11 -1 24 63 28 33 3 65
7 71 11 5 3 9 23 7 44 -2 21 -3 46 -3 57 -1 15 -6 17 -31 13 -20 -5 -30 -2
-31 6 0 9 -2 9 -6 0 -2 -7 -22 -13 -44 -13 -29 0 -37 3 -33 14 4 10 30 17 80
21 l74 7 0 54 0 54 -80 0 c-73 0 -80 2 -80 20 0 17 7 20 43 21 23 0 60 4 82 8
22 4 45 6 50 4 6 -2 11 -65 13 -155z m3012 72 c-6 -11 -8 -26 -3 -33 11 -17
10 -51 -2 -59 -6 -5 -4 -18 7 -35 14 -25 15 -31 2 -56 -10 -18 -12 -33 -6 -45
8 -15 6 -111 -3 -120 -2 -2 -6 25 -10 61 l-7 64 -173 -1 c-130 0 -177 3 -189
13 -14 11 -16 11 -16 -3 0 -11 -9 -16 -30 -16 -26 0 -30 4 -30 26 l0 26 108
-3 c59 -2 110 -8 114 -14 5 -6 8 -6 8 3 0 7 13 12 31 12 17 0 28 -4 24 -10 -3
-5 -1 -10 4 -10 6 0 11 5 11 10 0 6 28 10 65 10 74 0 69 -9 65 112 -2 67 0 77
17 81 10 3 19 5 21 6 1 0 -2 -8 -8 -19z m755 10 c9 -14 72 -12 78 3 12 28 23
-16 26 -102 3 -106 19 -95 -167 -111 -124 -11 -142 -9 -142 15 0 20 24 25 133
25 141 0 142 1 144 61 l2 49 -34 0 c-18 0 -42 3 -52 6 -17 5 -17 5 0 -9 10 -9
17 -24 15 -34 -3 -16 -16 -18 -102 -21 -55 -1 -103 1 -108 6 -5 5 -6 27 -2 50
7 48 13 51 118 62 39 4 74 8 78 9 4 0 10 -3 13 -9z m2055 -102 c1 -24 2 -53 2
-65 0 -13 4 -23 8 -23 5 0 7 -15 4 -32 -12 -101 -13 -118 -6 -118 5 0 8 -12 7
-27 0 -16 -7 -28 -14 -28 -11 0 -13 20 -12 88 l2 87 -38 1 c-21 1 -43 1 -50 0
-6 -1 -14 3 -17 7 -3 6 -24 6 -48 2 -24 -4 -63 -7 -88 -6 -38 1 -45 4 -48 23
-3 22 -3 22 137 20 l141 -2 0 63 c0 70 15 78 20 10z m-6260 -17 c5 -11 10 -56
10 -99 l0 -80 -87 -8 c-79 -6 -478 0 -545 10 l-27 3 7 -61 c4 -34 7 -91 7
-129 0 -37 2 -67 5 -67 7 0 3 -101 -4 -108 -3 -3 -6 5 -6 18 0 22 -1 22 -102
19 l-103 -4 -3 31 -3 32 95 4 c52 2 98 7 101 10 4 3 3 21 0 40 l-7 35 -99 -5
-99 -5 0 32 c0 18 5 31 13 32 6 0 23 2 37 3 14 1 50 3 81 4 61 2 70 10 62 53
-5 25 -5 25 -99 21 -65 -3 -94 -1 -94 7 0 6 7 11 16 11 13 0 13 2 -2 18 -17
16 -17 17 0 20 10 2 33 2 52 0 18 -2 31 -2 29 1 -7 7 29 30 38 24 5 -3 3 -10
-4 -14 -14 -9 36 -4 73 7 9 3 19 0 23 -6 4 -7 12 -7 25 0 28 15 256 13 280 -2
17 -11 22 -10 29 0 5 9 47 15 134 19 l127 6 0 28 c0 22 -6 30 -24 35 -14 3
-34 3 -44 -1 -11 -3 -23 -1 -27 5 -4 6 12 10 44 10 28 0 51 4 51 10 0 6 -57 7
-150 3 -105 -4 -150 -2 -150 5 0 7 28 10 80 9 44 -1 80 0 80 3 0 3 28 5 63 4
49 0 65 4 75 18 17 23 29 23 42 -1z m4905 -6 c14 -13 25 -36 25 -51 0 -20 3
-24 13 -16 10 8 13 5 12 -16 0 -17 5 -27 15 -27 18 0 30 -14 29 -35 0 -10 -3
-9 -10 5 -8 17 -9 15 -6 -10 2 -24 -1 -31 -15 -31 -10 0 -18 6 -18 12 0 6 -8
11 -17 10 -11 0 -20 9 -23 24 -12 49 -43 110 -57 110 -21 0 -28 -4 -28 -16 0
-6 -8 -22 -18 -37 -9 -14 -17 -33 -17 -42 0 -20 29 -19 51 1 16 14 18 14 22
-3 10 -32 -8 -113 -24 -113 -5 0 -9 -6 -9 -12 0 -7 -7 -26 -15 -41 -10 -21
-12 -34 -5 -47 13 -24 13 -40 0 -20 -7 12 -11 8 -16 -17 -8 -41 -35 -45 -33
-5 1 15 4 41 8 57 4 17 2 46 -6 69 -16 47 -16 43 1 43 8 0 12 -6 9 -14 -3 -7
0 -13 6 -13 14 0 15 57 1 65 -5 3 -10 25 -10 47 l0 42 -20 -22 c-45 -48 -53
-17 -15 58 22 43 30 50 62 55 21 4 43 8 48 10 24 8 37 4 60 -20z m-4708 -129
c2 -2 -11 -10 -28 -19 -27 -13 -29 -16 -13 -21 15 -4 20 -17 22 -53 1 -27 5
-59 8 -73 12 -62 13 -170 1 -170 -7 0 -8 -3 -2 -8 6 -4 11 -55 12 -113 1 -105
8 -173 19 -190 3 -5 -1 -9 -8 -9 -9 0 -9 -3 2 -10 13 -9 13 -11 0 -20 -16 -10
-20 12 -35 233 l-7 107 -79 0 -79 0 0 35 0 35 75 0 75 0 0 29 c0 36 -9 39 -82
33 l-58 -4 0 34 0 35 56 6 c31 3 60 9 64 14 4 4 5 25 3 46 l-5 37 -60 0 c-51
0 -59 2 -54 16 3 9 6 19 6 24 0 5 8 10 18 12 19 5 144 -1 149 -6z m741 -78 c0
-24 5 -68 12 -98 7 -30 13 -93 14 -140 1 -47 5 -91 10 -99 5 -8 10 -42 11 -75
0 -34 6 -70 11 -81 13 -24 15 -105 3 -105 -8 0 -11 13 -13 68 -1 9 -3 19 -6
22 -3 3 -14 72 -24 155 -10 82 -20 156 -21 165 -2 8 -4 29 -4 47 -1 29 -5 33
-38 39 -21 4 -62 2 -93 -4 -30 -6 -175 -14 -322 -18 l-268 -7 0 28 0 28 153
-7 c317 -13 415 -15 352 -6 -73 10 -241 27 -354 36 -167 13 -53 24 247 24
l302 0 0 29 c0 16 6 32 13 34 6 3 13 6 13 6 1 1 2 -18 2 -41z m114 27 c3 3 5
-11 6 -32 1 -20 5 -39 9 -42 5 -3 9 -50 11 -104 2 -76 -1 -101 -12 -113 -11
-10 -13 -21 -7 -38 5 -12 6 -29 1 -36 -8 -13 7 -70 19 -70 4 0 5 -17 2 -37 -2
-21 -6 -32 -8 -25 -3 6 -8 10 -13 7 -9 -6 -25 158 -21 228 1 32 -3 52 -13 63
-17 17 -20 56 -10 153 5 46 10 59 19 51 6 -5 14 -8 17 -5z m-1054 -106 c2 -21
-2 -40 -11 -47 -11 -9 -345 -16 -568 -12 -22 0 -35 50 -17 61 7 5 78 8 158 8
363 -1 376 -1 390 16 22 26 45 14 48 -26z m-1517 -36 c1 -16 1 -34 0 -42 -2
-7 2 -11 7 -8 4 4 9 -20 9 -51 1 -101 9 -202 16 -209 4 -3 5 -20 1 -37 -3 -17
-1 -51 5 -76 6 -28 7 -46 1 -48 -6 -2 -10 -8 -10 -13 0 -6 3 -8 8 -6 4 3 7
-29 6 -71 -1 -45 -5 -77 -12 -80 -6 -2 -11 5 -11 15 1 10 -2 50 -5 88 -3 39
-5 80 -6 92 0 22 -1 22 -140 16 l-140 -6 0 36 c0 21 1 37 3 38 1 0 58 2 127 5
125 6 140 9 143 35 2 8 6 19 10 25 4 7 0 14 -8 18 -9 3 -15 18 -15 36 l0 30
-132 -3 c-81 -1 -132 2 -134 8 -9 27 17 35 134 43 67 5 124 11 128 14 3 4 2
27 -2 53 l-7 47 -123 -4 c-110 -3 -124 -2 -124 13 0 13 14 18 61 23 34 3 80 6
103 6 56 0 86 10 86 26 0 27 20 14 21 -13z m616 -2 c1 -18 -4 -31 -13 -35 -8
-3 -139 -9 -290 -13 l-274 -6 0 26 c0 15 1 27 3 28 10 5 375 27 462 28 l110 1
2 -29z m891 -106 c6 -49 -13 -52 -423 -58 l-150 -2 0 35 0 35 180 6 c99 3 227
5 285 5 97 -1 105 -2 108 -21z m544 4 c122 -6 249 -14 282 -19 60 -7 60 -8 16
-10 -25 -1 -56 -3 -70 -5 -20 -2 -441 -7 -522 -5 -12 0 -18 8 -18 25 0 30 -7
30 312 14z m-1420 -33 c4 -6 8 -20 8 -31 0 -19 -8 -20 -173 -25 -94 -3 -226
-5 -292 -5 -113 0 -120 1 -120 20 0 24 28 28 310 45 105 6 197 12 205 13 22 4
54 -5 62 -17z m-16 -211 c9 -27 -20 -34 -217 -49 -113 -9 -234 -16 -268 -16
l-62 0 3 32 3 31 145 5 c80 2 146 5 148 7 9 8 246 -1 248 -10z m1746 -51 c-2
-14 -11 -28 -19 -31 -20 -8 -520 18 -553 28 -15 4 17 8 85 9 61 1 191 7 290
14 99 6 185 10 191 8 6 -1 9 -14 6 -28z m5294 -214 c8 0 14 -5 14 -11 0 -6 -7
-9 -15 -5 -8 3 -15 2 -15 -3 0 -5 13 -11 29 -13 23 -3 28 -1 24 11 -3 10 -2
12 4 6 9 -12 44 -12 62 -1 6 4 11 2 11 -3 0 -6 8 -12 18 -12 16 -1 16 -2 0 -6
-22 -5 -24 -23 -4 -23 8 0 21 -9 29 -20 8 -11 17 -17 20 -13 6 6 11 -11 8 -29
0 -5 4 -8 9 -8 6 0 10 8 10 18 0 9 4 13 8 7 4 -5 23 -10 44 -10 32 0 35 2 26
19 -9 17 -7 18 23 12 18 -3 36 -11 39 -17 4 -5 11 -9 16 -8 22 4 29 -3 31 -32
3 -33 -21 -69 -30 -46 -3 7 -6 5 -6 -5 -1 -11 -9 -18 -20 -18 -23 0 -33 -23
-25 -58 4 -19 3 -23 -4 -13 -5 7 -14 11 -20 7 -6 -3 -15 1 -21 11 -8 16 -11
15 -22 -10 -7 -15 -18 -26 -25 -23 -7 3 -22 -10 -33 -29 -12 -22 -15 -32 -7
-29 8 3 18 15 24 27 7 14 11 16 11 7 0 -19 -46 -96 -56 -92 -4 2 -10 -5 -14
-15 -6 -14 -8 -12 -8 10 l-1 28 -26 -28 -25 -28 15 32 c20 40 20 39 -5 39 -14
0 -22 -8 -26 -28 -3 -15 -9 -25 -14 -22 -5 3 -9 -2 -9 -10 0 -9 -5 -16 -11
-16 -7 0 -8 11 -4 31 5 22 4 29 -4 25 -6 -4 -11 -2 -11 3 0 18 -18 12 -23 -6
-4 -15 -6 -14 -13 6 -7 23 -8 24 -15 5 -4 -10 -8 -35 -8 -54 -1 -26 -4 -31
-11 -20 -5 8 -7 22 -4 32 2 9 0 19 -6 23 -6 3 -10 -3 -10 -15 0 -18 -3 -19
-21 -10 -16 9 -25 8 -37 -2 -9 -8 -29 -15 -44 -17 -23 -2 -26 1 -21 19 4 13 0
25 -8 30 -20 13 -30 1 -18 -22 9 -16 8 -19 -3 -16 -16 5 -24 48 -9 48 6 0 11
7 11 15 0 9 -9 15 -25 15 -15 0 -25 6 -25 15 0 11 -5 12 -23 6 -12 -5 -37 -7
-54 -5 -27 3 -30 1 -26 -16 6 -23 23 -27 23 -5 0 8 5 15 10 15 6 0 9 -4 8 -9
-3 -10 40 -51 54 -51 4 0 8 5 8 10 0 6 5 10 12 10 6 0 2 -10 -9 -22 -15 -16
-19 -29 -13 -43 4 -11 6 -29 5 -40 -5 -48 -35 -77 -35 -34 0 11 4 17 10 14 6
-4 9 6 9 22 -2 46 -8 59 -28 60 -21 2 -35 -42 -21 -67 7 -12 11 -10 20 10 l11
25 -6 -25 c-2 -14 -5 -34 -6 -45 0 -11 -3 -14 -6 -7 -4 9 -15 5 -40 -14 l-36
-27 8 29 c19 75 27 94 36 88 5 -3 9 2 9 10 0 22 -15 28 -55 20 -29 -5 -35 -10
-30 -25 4 -11 2 -19 -5 -19 -7 0 -14 9 -17 20 -6 23 -23 27 -23 5 0 -19 -5
-19 -29 1 -11 10 -17 24 -13 33 4 13 1 12 -16 -3 -17 -15 -25 -16 -36 -7 -20
17 -30 -4 -11 -22 8 -9 15 -20 15 -26 0 -5 7 -16 15 -25 14 -13 13 -15 -2 -13
-24 1 -73 -32 -73 -49 0 -18 -38 -13 -52 7 -6 9 -8 -7 -3 -51 4 -45 3 -60 -5
-50 -5 8 -10 10 -10 5 0 -6 -9 -11 -20 -12 -14 -1 -24 7 -31 25 -9 23 -4 40
35 117 25 50 48 100 51 113 4 12 22 34 41 48 19 15 41 42 50 60 9 18 26 43 38
56 12 13 28 35 35 50 18 35 71 89 81 83 4 -3 11 2 14 11 3 8 10 12 16 9 6 -4
8 -11 5 -16 -9 -14 6 -11 24 5 18 16 58 22 81 13 34 -13 55 -12 53 4 -2 11 5
15 26 13 40 -3 81 7 81 18 0 6 -11 7 -25 4 -20 -5 -25 -3 -25 12 0 10 8 18 18
19 9 1 28 4 42 7 14 4 18 3 10 -1 -14 -7 -14 -10 1 -25 16 -15 17 -15 22 3 3
11 14 19 26 19 15 0 19 4 14 17 -5 13 -2 15 11 10 10 -4 24 -7 32 -7z m-5602
-896 c12 -31 7 -271 -6 -282 -9 -7 -342 -9 -1048 -6 l-1035 4 -3 150 -3 150
1045 0 c943 0 1044 -2 1050 -16z m-2194 -39 c26 -24 27 -76 0 -100 -19 -17
-19 -18 6 -66 l24 -49 -22 0 c-17 0 -29 12 -48 48 -33 62 -54 62 -58 0 -3 -40
-6 -48 -23 -48 -18 0 -19 8 -19 121 l0 121 60 -4 c39 -3 66 -11 80 -23z"/>
<path d="M443 265 c-39 -16 -53 -42 -53 -93 0 -45 27 -76 76 -86 34 -8 104 15
104 33 0 14 -1 14 -38 -5 -36 -17 -94 -11 -114 13 -20 24 -15 81 10 105 25 25
81 30 106 9 19 -16 21 -62 4 -79 -16 -16 -28 -15 -24 1 18 57 16 64 -16 71
-35 7 -55 -6 -69 -42 -15 -40 4 -60 56 -60 34 0 51 5 65 21 37 39 21 98 -31
116 -39 13 -37 13 -76 -4z"/>
<path d="M7161 6362 l4 -176 -25 -7 c-23 -6 -23 -7 -3 -8 15 -1 23 -9 28 -32
9 -40 4 -45 -45 -48 -11 0 -20 -5 -20 -10 0 -6 9 -8 19 -6 32 6 53 -17 45 -49
-6 -25 -10 -28 -40 -23 -31 5 -34 3 -34 -19 0 -26 27 -33 47 -13 17 17 33 1
33 -32 0 -21 -5 -29 -17 -30 -10 -1 -27 -2 -38 -3 -11 0 -20 -8 -20 -16 0 -10
11 -15 35 -15 28 0 36 -4 38 -21 4 -27 -24 -52 -40 -36 -16 16 -25 15 -32 -4
-9 -24 13 -47 30 -33 22 18 46 3 42 -27 -2 -21 2 -28 20 -30 12 -2 22 0 22 5
0 4 12 7 26 5 16 -1 24 2 21 9 -3 7 -10 11 -16 10 -6 -2 -11 2 -11 8 0 6 6 9
14 6 19 -8 28 18 20 59 -5 26 -2 35 10 40 9 3 16 13 16 21 0 12 2 12 15 -1 8
-8 14 -27 13 -43 -1 -15 -1 -45 0 -65 2 -37 2 -38 42 -35 l40 2 1 115 c1 103
2 109 10 60 5 -30 8 -80 7 -110 l-2 -55 35 -1 c19 -1 37 3 40 8 4 6 5 76 3
157 -2 90 0 136 5 121 5 -14 9 -82 10 -151 1 -69 3 -128 6 -131 3 -3 20 -2 38
1 l32 7 -1 209 c-1 169 0 191 6 110 4 -55 8 -148 9 -207 0 -59 4 -109 9 -111
4 -3 22 -2 41 0 l33 6 -3 117 c-2 65 -1 113 3 107 4 -7 8 -60 8 -119 0 -101 1
-108 20 -108 15 0 20 7 21 28 l1 27 7 -27 c11 -50 26 -14 28 68 2 80 -6 105
-32 101 -17 -3 -24 72 -24 261 -1 155 -3 182 -16 182 -12 0 -15 -17 -15 -97 0
-122 -9 -118 -11 5 -1 61 -6 95 -14 102 -9 8 -15 8 -20 0 -4 -6 -12 -5 -22 6
-22 22 -33 2 -28 -51 3 -32 2 -35 -4 -15 -5 14 -9 37 -10 51 -1 15 -8 29 -16
33 -11 4 -15 -3 -16 -27 l-2 -32 -4 30 c-6 39 -21 55 -34 35 -8 -13 -11 -13
-20 3 -5 9 -14 17 -19 17 -6 0 -10 -8 -11 -17 0 -14 -3 -13 -11 5 -19 39 -38
27 -40 -25 l-1 -48 -6 50 c-4 36 -11 51 -23 53 -14 3 -16 -5 -15 -47 3 -67
-11 -66 -15 1 -4 72 -28 78 -28 7 0 -65 -11 -59 -13 7 -2 38 -6 50 -19 52 -16
3 -18 -7 -20 -95 l-2 -98 -5 100 c-5 84 -9 100 -23 103 -15 3 -18 -5 -20 -50
l-1 -53 -6 59 c-5 48 -10 60 -25 62 -17 2 -18 -7 -15 -174z"/>
<path d="M2860 6433 c0 -11 -4 -13 -12 -6 -12 8 -33 10 -90 5 -10 -1 -18 -10
-19 -19 0 -15 -2 -15 -7 -3 -8 17 -20 19 -39 7 -7 -5 -13 -4 -13 2 0 5 -9 9
-20 8 -16 -1 -20 -8 -20 -40 0 -21 4 -36 8 -33 5 3 49 8 98 11 68 4 92 9 103
23 13 16 13 16 7 -2 -5 -14 -2 -17 10 -12 8 3 36 6 60 6 42 0 44 1 44 29 0 31
-16 43 -48 34 -15 -4 -19 -11 -16 -29 2 -13 0 -24 -6 -24 -5 0 -10 11 -10 24
0 13 -7 26 -15 30 -9 3 -15 -1 -15 -11z"/>
<path d="M3236 6305 c-9 -9 -16 -22 -16 -28 0 -7 -5 -4 -11 6 -15 25 -24 21
-27 -13 -2 -24 2 -31 23 -36 29 -7 33 -36 13 -92 -10 -28 -10 -36 0 -39 6 -3
12 -13 12 -23 0 -10 -6 -20 -12 -23 -10 -3 -10 -9 0 -26 14 -25 16 -71 2 -71
-14 0 -13 -26 2 -50 10 -16 10 -24 -1 -41 -11 -18 -11 -23 1 -30 10 -7 14
-112 18 -551 l5 -543 5 410 c2 226 6 376 10 335 6 -66 6 -59 7 50 0 83 -2 110
-7 80 -6 -36 -7 -29 -7 40 0 65 2 75 7 45 7 -37 7 -35 9 23 0 35 -3 61 -8 58
-5 -3 -9 12 -9 34 -1 23 3 38 9 35 12 -8 11 -3 -1 31 -11 29 -4 68 11 59 15
-10 10 7 -8 28 -17 18 -17 19 -1 31 10 7 16 15 14 17 -2 2 -6 19 -9 37 -5 24
-3 31 6 27 6 -4 4 0 -5 8 -21 17 -23 27 -5 27 6 0 12 11 12 24 0 13 -4 24 -10
23 -5 -1 -10 17 -9 41 0 23 -3 42 -8 42 -12 0 -10 34 4 48 6 6 9 14 6 17 -3 3
-13 -1 -22 -10z"/>
<path d="M3147 6157 c-9 -12 -17 -16 -17 -11 0 6 -7 11 -15 11 -10 0 -15 -11
-15 -32 0 -29 2 -31 30 -27 25 4 30 1 30 -17 0 -21 -8 -25 -42 -22 -14 2 -18
-5 -18 -29 0 -29 2 -32 25 -26 33 8 41 -11 20 -50 -9 -17 -15 -22 -15 -13 0 9
-7 19 -15 23 -11 4 -15 -2 -15 -22 0 -24 4 -28 28 -27 25 0 27 -3 28 -42 1
-32 -5 -47 -22 -62 -28 -24 -41 -68 -25 -84 8 -8 11 -2 11 24 0 23 3 30 9 20
5 -8 16 -11 25 -8 12 5 16 0 16 -23 0 -32 -18 -50 -30 -30 -13 21 -23 -8 -21
-63 1 -27 -4 -56 -10 -63 -9 -11 -9 -21 0 -40 6 -14 9 -30 6 -35 -4 -5 -1 -9
4 -9 6 0 11 -6 11 -14 0 -9 7 -12 20 -9 17 4 20 0 20 -25 0 -31 -20 -56 -28
-34 -7 23 -22 1 -21 -31 0 -18 3 -26 6 -19 2 6 13 12 24 12 14 0 19 -7 19 -30
0 -34 -16 -39 -36 -12 -12 15 -14 12 -12 -25 1 -24 6 -43 10 -43 4 0 8 4 8 10
0 5 7 7 16 3 18 -7 16 -54 -4 -61 -6 -2 -16 7 -21 20 l-10 23 0 -23 c-1 -12
-6 -31 -13 -42 -9 -14 -9 -25 -1 -42 6 -13 13 -30 16 -39 8 -24 58 -31 73 -11
10 14 10 20 -1 32 -16 19 -13 59 5 70 11 7 10 11 -3 25 -21 20 -22 49 -2 68
13 13 13 16 0 27 -8 7 -15 23 -15 35 0 12 7 28 15 35 13 11 13 14 0 27 -19 18
-19 47 -1 65 11 12 11 17 0 33 -14 19 -10 55 8 66 6 4 3 17 -7 33 -16 24 -16
28 -1 51 15 23 15 27 1 41 -8 9 -15 33 -15 55 0 29 -4 39 -16 39 -13 0 -14 3
-5 14 6 7 9 20 5 29 -3 8 -1 18 5 21 7 5 7 15 0 33 -5 15 -7 34 -3 42 9 19 12
221 4 226 -3 2 -13 -6 -23 -18z"/>
<path d="M7020 5995 c0 -47 -3 -84 -7 -84 -5 1 -17 1 -28 0 -18 -1 -17 -3 5
-14 24 -12 25 -17 25 -95 1 -50 5 -86 12 -90 6 -4 13 -21 16 -37 l4 -30 2 34
c1 26 5 32 17 27 13 -5 15 13 13 157 -2 206 -4 217 -35 217 -24 0 -24 -2 -24
-85z"/>
<path d="M5575 5223 c3 -370 3 -353 15 -353 6 0 8 66 7 169 -2 157 -1 170 16
175 22 6 20 51 -2 51 -12 0 -15 20 -15 100 1 71 4 99 12 98 7 -2 12 9 12 26 0
26 -14 41 -40 41 -5 0 -7 -138 -5 -307z"/>
</g>
</svg>
